<svg width="64" height="64" viewBox="0 0 64 64" fill="none" xmlns="http://www.w3.org/2000/svg">
<path opacity="0.5" d="M38.8153 41.4613L37.602 42.7413C37.602 42.7413 34.714 45.7786 26.834 37.4826C18.954 29.1866 21.842 26.1493 21.842 26.1493L22.6073 25.3413C24.49 23.3573 24.6686 20.1733 23.0233 17.848L19.6633 13.0933C17.626 10.2133 13.6926 9.83463 11.3593 12.2906L7.17529 16.6933C6.02062 17.912 5.24729 19.488 5.34062 21.24C5.58062 25.72 7.49529 35.3546 18.1726 46.6C29.498 58.52 40.1246 58.9946 44.4686 58.5653C45.8446 58.432 47.0393 57.688 48.002 56.6746L51.7886 52.6853C54.3486 49.992 53.6286 45.3786 50.354 43.496L45.2606 40.5626C43.1113 39.328 40.4953 39.6906 38.8153 41.4586" fill="black"/>
<path d="M45.3327 32.0002C48.2322 31.9997 51.0526 31.054 53.3663 29.3065C55.6801 27.559 57.3611 25.1048 58.1547 22.316C58.9482 19.5272 58.8111 16.5556 57.764 13.8518C56.7169 11.1479 54.8169 8.85908 52.352 7.33213C49.8871 5.80519 46.9916 5.12337 44.1043 5.39C41.2171 5.65664 38.4954 6.85719 36.3518 8.80972C34.2083 10.7623 32.7596 13.3603 32.2253 16.2102C31.6911 19.0601 32.1005 22.0065 33.3913 24.6028C33.6347 25.0745 33.6982 25.6185 33.57 26.1335L32.7753 29.1015C32.6967 29.3954 32.6967 29.7048 32.7755 29.9986C32.8542 30.2924 33.0089 30.5604 33.224 30.7755C33.4391 30.9906 33.7071 31.1453 34.0009 31.2241C34.2948 31.3028 34.6041 31.3029 34.898 31.2242L37.866 30.4295C38.381 30.3013 38.925 30.3648 39.3967 30.6082C41.2413 31.5244 43.273 32.0009 45.3327 32.0002Z" fill="black"/>
</svg>
