<svg width="64" height="64" viewBox="0 0 64 64" fill="none" xmlns="http://www.w3.org/2000/svg">
<path opacity="0.5" d="M8 26.6668C8 16.6108 8 11.5815 11.1253 8.45883C14.2507 5.33616 19.2773 5.3335 29.3333 5.3335H34.6667C44.7227 5.3335 49.752 5.3335 52.8747 8.45883C55.9973 11.5842 56 16.6108 56 26.6668V37.3335C56 47.3895 56 52.4188 52.8747 55.5415C49.7493 58.6642 44.7227 58.6668 34.6667 58.6668H29.3333C19.2773 58.6668 14.248 58.6668 11.1253 55.5415C8.00267 52.4162 8 47.3895 8 37.3335V26.6668Z" fill="black"/>
<path d="M44.0494 44.0024C44.516 43.6398 44.94 43.2158 45.7854 42.3704L56.3374 31.8158C56.5934 31.5624 56.476 31.1224 56.1374 31.0024C54.4849 30.4297 52.9853 29.4865 51.7534 28.2451C50.512 27.0132 49.5688 25.5136 48.996 23.8611C48.876 23.5224 48.436 23.4051 48.1827 23.6611L37.6254 34.2131C36.78 35.0584 36.356 35.4824 35.9934 35.9491C35.5614 36.502 35.1952 37.094 34.8947 37.7251C34.6414 38.2584 34.452 38.8291 34.0734 39.9651L33.5827 41.4318L32.804 43.7651L32.076 45.9518C31.9853 46.2258 31.9725 46.5198 32.0391 46.8007C32.1057 47.0816 32.2491 47.3385 32.4532 47.5426C32.6574 47.7468 32.9142 47.8902 33.1952 47.9568C33.4761 48.0234 33.77 48.0106 34.044 47.9198L36.2307 47.1918L38.564 46.4131L40.0307 45.9224C41.1667 45.5438 41.7374 45.3571 42.2707 45.1011C42.9018 44.7989 43.4965 44.4327 44.0494 44.0024ZM59.644 28.5118C60.7258 27.4297 61.3333 25.9622 61.3331 24.4322C61.3328 22.9021 60.7248 21.4348 59.6427 20.3531C58.5606 19.2714 57.0932 18.6638 55.5631 18.6641C54.0331 18.6643 52.5658 19.2724 51.484 20.3544L51.148 20.6958C50.9858 20.8544 50.865 21.0504 50.7962 21.2666C50.7274 21.4828 50.7127 21.7126 50.7534 21.9358C50.8067 22.2211 50.9 22.6424 51.0734 23.1411C51.42 24.1411 52.076 25.4531 53.3107 26.6878C54.5454 27.9224 55.8574 28.5784 56.8574 28.9251C57.3587 29.0984 57.7774 29.1918 58.0627 29.2451C58.2859 29.2835 58.515 29.2677 58.7308 29.199C58.9466 29.1303 59.1428 29.0108 59.3027 28.8504L59.644 28.5118Z" fill="black"/>
<path fill-rule="evenodd" clip-rule="evenodd" d="M19.333 24C19.333 23.4696 19.5437 22.9609 19.9188 22.5858C20.2939 22.2107 20.8026 22 21.333 22H38.6663C39.1968 22 39.7055 22.2107 40.0806 22.5858C40.4556 22.9609 40.6663 23.4696 40.6663 24C40.6663 24.5304 40.4556 25.0391 40.0806 25.4142C39.7055 25.7893 39.1968 26 38.6663 26H21.333C20.8026 26 20.2939 25.7893 19.9188 25.4142C19.5437 25.0391 19.333 24.5304 19.333 24ZM19.333 34.6667C19.333 34.1362 19.5437 33.6275 19.9188 33.2525C20.2939 32.8774 20.8026 32.6667 21.333 32.6667H29.333C29.8634 32.6667 30.3721 32.8774 30.7472 33.2525C31.1223 33.6275 31.333 34.1362 31.333 34.6667C31.333 35.1971 31.1223 35.7058 30.7472 36.0809C30.3721 36.456 29.8634 36.6667 29.333 36.6667H21.333C20.8026 36.6667 20.2939 36.456 19.9188 36.0809C19.5437 35.7058 19.333 35.1971 19.333 34.6667ZM19.333 45.3333C19.333 44.8029 19.5437 44.2942 19.9188 43.9191C20.2939 43.544 20.8026 43.3333 21.333 43.3333H25.333C25.8634 43.3333 26.3721 43.544 26.7472 43.9191C27.1223 44.2942 27.333 44.8029 27.333 45.3333C27.333 45.8638 27.1223 46.3725 26.7472 46.7475C26.3721 47.1226 25.8634 47.3333 25.333 47.3333H21.333C20.8026 47.3333 20.2939 47.1226 19.9188 46.7475C19.5437 46.3725 19.333 45.8638 19.333 45.3333Z" fill="black"/>
</svg>
