<svg width="20" height="20" viewBox="0 0 20 20" fill="none" xmlns="http://www.w3.org/2000/svg">
<path d="M11.25 1.66667C11.25 1.66667 13.195 1.84333 15.6692 4.31833C18.1442 6.79334 18.3208 8.7375 18.3208 8.7375M11.8392 4.61333C11.8392 4.61333 12.6642 4.84833 13.9017 6.08583C15.1392 7.32333 15.375 8.14833 15.375 8.14833" stroke="#1C68FF" stroke-width="1.25" stroke-linecap="round"/>
<path opacity="0.5" d="M13.0375 12.9525L13.4167 12.5525L12.51 11.6917L12.1308 12.0925L13.0375 12.9525ZM14.6658 12.3842L16.2575 13.3017L16.8817 12.2175L15.2892 11.3008L14.6658 12.3842ZM16.565 15.2008L15.3817 16.4467L16.2875 17.3083L17.4708 16.0625L16.565 15.2008ZM14.6692 16.8467C13.4733 16.9642 10.3525 16.8642 6.96584 13.2992L6.06 14.1592C9.75083 18.045 13.2717 18.2417 14.7917 18.0908L14.6692 16.8467ZM6.96584 13.2992C3.73583 9.89834 3.19417 7.02917 3.12667 5.77084L1.87833 5.83834C1.96167 7.38 2.615 10.5325 6.06 14.1592L6.96584 13.2992ZM8.1125 7.7675L8.35083 7.51584L7.445 6.655L7.20583 6.90667L8.1125 7.7675ZM8.53917 4.3825L7.48833 2.8975L6.4675 3.61917L7.5175 5.105L8.53917 4.3825ZM3.93083 2.57584L2.62417 3.95417L3.53083 4.815L4.83917 3.4375L3.93083 2.57584ZM7.65917 7.33667C7.50919 7.19212 7.3578 7.04906 7.205 6.9075L7.20333 6.90917L7.20083 6.91167L7.15917 6.96C7.07757 7.06819 7.01294 7.18817 6.9675 7.31584C6.88583 7.545 6.8425 7.84834 6.8975 8.22667C7.00584 8.97 7.49333 9.96917 8.76583 11.31L9.6725 10.4483C8.4825 9.19584 8.18917 8.425 8.13417 8.045C8.1075 7.86167 8.13417 7.76584 8.145 7.735L8.15167 7.71917L8.12833 7.75L8.11333 7.76667C8.11333 7.76667 8.11167 7.76667 7.65917 7.33667ZM8.76583 11.31C10.035 12.6467 10.9933 13.1708 11.7242 13.29C12.1 13.3508 12.4042 13.3017 12.6342 13.2108C12.7617 13.1611 12.8803 13.0907 12.985 13.0025L13.015 12.9742L13.0267 12.9625L13.0325 12.9575L13.035 12.955L13.0358 12.9533C13.0358 12.9533 13.0375 12.9525 12.5842 12.5217C12.1308 12.0917 12.1317 12.0908 12.1317 12.09L12.1333 12.0892L12.135 12.0867L12.1392 12.0825L12.1475 12.0742L12.1783 12.0475C12.1867 12.0431 12.1856 12.0433 12.175 12.0483C12.1583 12.055 12.0833 12.0817 11.925 12.0558C11.59 12.0008 10.8667 11.7058 9.6725 10.4483L8.76583 11.31ZM7.48833 2.8975C6.64333 1.7025 4.95333 1.5 3.93167 2.57667L4.83667 3.4375C5.2725 2.97917 6.04083 3.015 6.4675 3.61917L7.48833 2.8975ZM3.12667 5.77084C3.10833 5.4375 3.25417 5.105 3.53083 4.815L2.62417 3.95417C2.1775 4.42417 1.8375 5.07667 1.87833 5.83834L3.12667 5.77084ZM15.3808 16.4475C15.1483 16.6925 14.9058 16.8233 14.6692 16.8467L14.7917 18.0908C15.4142 18.03 15.9183 17.6975 16.2875 17.3083L15.3808 16.4475ZM8.35083 7.51667C9.1575 6.6675 9.21417 5.33917 8.53917 4.38334L7.51833 5.105C7.87 5.6025 7.81583 6.265 7.445 6.655L8.35083 7.51667ZM16.2575 13.3017C16.9417 13.6958 17.0758 14.6642 16.565 15.2017L17.4708 16.0625C18.5583 14.9175 18.2417 13.0008 16.8817 12.2175L16.2575 13.3017ZM13.4167 12.5533C13.7375 12.215 14.2383 12.1392 14.6658 12.385L15.2892 11.3017C14.3733 10.775 13.2392 10.9267 12.51 11.6933L13.4167 12.5533Z" fill="#1C68FF"/>
</svg>
