<svg width="64" height="64" viewBox="0 0 64 64" fill="none" xmlns="http://www.w3.org/2000/svg">
<path d="M13.044 25.6381C13.044 24.5661 13.9053 23.6968 14.9693 23.6968H25.252C26.3186 23.6968 27.18 24.5661 27.18 25.6381C27.181 25.8924 27.132 26.1443 27.0357 26.3796C26.9393 26.6149 26.7976 26.8289 26.6186 27.0094C26.4396 27.1899 26.2267 27.3334 25.9922 27.4317C25.7577 27.5299 25.5062 27.5811 25.252 27.5821H14.9693C14.4563 27.5793 13.9654 27.373 13.6044 27.0085C13.2434 26.644 13.0418 26.1511 13.044 25.6381Z" fill="black"/>
<path fill-rule="evenodd" clip-rule="evenodd" d="M56.501 26.6776C56.3339 26.6687 56.1561 26.6652 55.9677 26.6669H48.573C42.517 26.6669 37.333 31.2963 37.333 37.3336C37.333 43.3709 42.517 48.0003 48.573 48.0003H55.9677C56.1561 48.0021 56.3339 47.9985 56.501 47.9896C58.9623 47.8403 61.1383 45.9709 61.3223 43.3576C61.333 43.187 61.333 43.0029 61.333 42.8323V31.8349C61.333 31.6643 61.333 31.4803 61.3223 31.3096C61.1383 28.6963 58.9623 26.8296 56.501 26.6776ZM47.9223 40.1789C49.4797 40.1789 50.7437 38.9043 50.7437 37.3336C50.7437 35.7603 49.4797 34.4883 47.9223 34.4883C46.365 34.4883 45.0957 35.7629 45.0957 37.3336C45.0957 38.9069 46.3623 40.1789 47.9223 40.1789Z" fill="black"/>
<path opacity="0.5" d="M56.373 26.6722C56.373 23.5228 56.2557 20.1442 54.245 17.7255C54.0478 17.4891 53.8405 17.2613 53.6237 17.0428C51.6263 15.0482 49.0957 14.1628 45.9703 13.7415C42.9303 13.3335 39.0503 13.3335 34.149 13.3335H28.517C23.6157 13.3335 19.733 13.3335 16.693 13.7415C13.5677 14.1628 11.037 15.0482 9.03967 17.0428C7.04501 19.0402 6.15967 21.5708 5.73834 24.6962C5.33301 27.7362 5.33301 31.6162 5.33301 36.5175V36.8162C5.33301 41.7175 5.33301 45.6002 5.74101 48.6375C6.16234 51.7628 7.04767 54.2935 9.04234 56.2908C11.0397 58.2855 13.5703 59.1708 16.6957 59.5922C19.7357 60.0002 23.6157 60.0002 28.517 60.0002H34.149C39.0503 60.0002 42.933 60.0002 45.9703 59.5922C49.0957 59.1708 51.6263 58.2855 53.6237 56.2908C54.1659 55.7433 54.6334 55.1566 55.0263 54.5308C56.2263 52.6108 56.3703 50.2588 56.3703 47.9975L55.9703 48.0002H48.573C42.517 48.0002 37.333 43.3708 37.333 37.3335C37.333 31.2962 42.517 26.6668 48.573 26.6668H55.9677C56.1081 26.6668 56.245 26.6686 56.373 26.6722Z" fill="black"/>
<path d="M26.9349 6.85894L21.3323 10.6456L16.7109 13.7389C19.7456 13.3336 23.6229 13.3336 28.5163 13.3336H34.1483C39.0496 13.3336 42.9323 13.3336 45.9696 13.7416C46.5812 13.8216 47.1696 13.9229 47.7349 14.0456L42.6656 10.6669L37.0309 6.85894C35.5351 5.8648 33.779 5.33447 31.9829 5.33447C30.1869 5.33447 28.4308 5.8648 26.9349 6.85894Z" fill="black"/>
</svg>
